DBRep_DrawableShape

CASCADE Topology V1, (c) Matra-Datavision
Locations 11
1
              1               0               0               0 
              0               1               0               0 
              0               0               1               0 
1
              1               0               0               0 
              0               1               0               0 
              0               0               1               0 
2  2 -1 0
1
              1               0               0               0 
              0               1               0               0 
              0               0               1              10 
2  2 -1 4 1 0
1
              1               0               0               0 
              0               1               0               0 
              0               0               1               0 
2  6 1 2 -1 0
2  2 1 6 -1 0
2  4 -1 2 1 6 -1 0
2  6 -1 0
2  6 1 2 -1 4 1 0
Curve2ds 4
1 0 0 0 -1 
1 6.2831853071795862 0 0 -1 
1 0 0 1 0 
1 0 -10 1 0 
Curves 10
1 -60 30 0 0 0 1 
1 60 30 0 0 0 1 
1 -60 30 0 1 0 0 
1 60 -30 0 0 0 1 
1 60 30 0 0 -1 0 
1 -60 -30 0 0 0 1 
1 60 -30 0 -1 0 0 
1 -60 -30 0 0 1 0 
1 20 0 0 0 0 1 
2 0 0 0 0 0 1 1 0 -0 -0 1 0 20
Polygon3D 0
PolygonOnTriangulations 25
2 1 2 
p 0.126666668554147 1 0 10 
2 3 4 
p 0.126666668554147 1 0 10 
2 3 4 
p 0.126666668554147 1 0 10 
2 1 2 
p 0.126666668554147 1 0 10 
2 1 3 
p 0.126666668554147 1 0 120 
2 2 4 
p 0.126666668554147 1 0 120 
2 1 2 
p 0.126666668554147 1 0 120 
2 3 4 
p 0.126666668554147 1 0 10 
2 1 2 
p 0.126666668554147 1 0 10 
2 2 4 
p 0.126666668554147 1 0 60 
2 1 3 
p 0.126666668554147 1 0 60 
2 2 3 
p 0.126666668554147 1 0 60 
2 3 4 
p 0.126666668554147 1 0 10 
2 1 2 
p 0.126666668554147 1 0 10 
2 2 4 
p 0.126666668554147 1 0 120 
2 1 3 
p 0.126666668554147 1 0 120 
2 3 4 
p 0.126666668554147 1 0 120 
2 1 3 
p 0.126666668554147 1 0 60 
2 2 4 
p 0.126666668554147 1 0 60 
2 4 1 
p 0.126666668554147 1 0 60 
2 1 2 
p 0.126666668554147 1 0 10 
2 3 4 
p 0.126666668554147 1 0 10 
79 2 82 83 84 85 86 87 88 89 90 91 92 93 94 95 96 97 98 99 100 101 102 103 104 105 106 107 108 109 110 111 112 113 114 115 116 117 118 119 120 121 122 123 124 125 126 127 128 129 130 131 132 133 134 135 136 137 138 139 140 141 142 143 144 145 146 147 148 149 150 151 152 153 154 155 156 157 158 4 
p 0.126666668554147 1 0 0.0805536577843537 0.161107315568707 0.241660973353061 0.322214631137415 0.402768288921768 0.483321946706122 0.563875604490476 0.644429262274829 0.724982920059183 0.805536577843537 0.88609023562789 0.966643893412244 1.0471975511966 1.12775120898095 1.2083048667653 1.28885852454966 1.36941218233401 1.44996584011837 1.53051949790272 1.61107315568707 1.69162681347143 1.77218047125578 1.85273412904013 1.93328778682449 2.01384144460884 2.09439510239319 2.17494876017755 2.2555024179619 2.33605607574626 2.41660973353061 2.49716339131496 2.57771704909932 2.65827070688367 2.73882436466802 2.81937802245238 2.89993168023673 2.98048533802109 3.06103899580544 3.14159265358979 3.22214631137415 3.3026999691585 3.38325362694285 3.46380728472721 3.54436094251156 3.62491460029592 3.70546825808027 3.78602191586462 3.86657557364898 3.94712923143333 4.02768288921768 4.10823654700204 4.18879020478639 4.26934386257075 4.3498975203551 4.43045117813945 4.51100483592381 4.59155849370816 4.67211215149251 4.75266580927687 4.83321946706122 4.91377312484558 4.99432678262993 5.07488044041428 5.15543409819864 5.23598775598299 5.31654141376734 5.3970950715517 5.47764872933605 5.55820238712041 5.63875604490476 5.71930970268911 5.79986336047347 5.88041701825782 5.96097067604217 6.04152433382653 6.12207799161088 6.20263164939523 6.28318530717959 
79 1 5 6 7 8 9 10 11 12 13 14 15 16 17 18 19 20 21 22 23 24 25 26 27 28 29 30 31 32 33 34 35 36 37 38 39 40 41 42 43 44 45 46 47 48 49 50 51 52 53 54 55 56 57 58 59 60 61 62 63 64 65 66 67 68 69 70 71 72 73 74 75 76 77 78 79 80 81 3 
p 0.126666668554147 1 0 0.0805536577843537 0.161107315568707 0.241660973353061 0.322214631137415 0.402768288921768 0.483321946706122 0.563875604490476 0.644429262274829 0.724982920059183 0.805536577843537 0.88609023562789 0.966643893412244 1.0471975511966 1.12775120898095 1.2083048667653 1.28885852454966 1.36941218233401 1.44996584011837 1.53051949790272 1.61107315568707 1.69162681347143 1.77218047125578 1.85273412904013 1.93328778682449 2.01384144460884 2.09439510239319 2.17494876017755 2.2555024179619 2.33605607574626 2.41660973353061 2.49716339131496 2.57771704909932 2.65827070688367 2.73882436466802 2.81937802245238 2.89993168023673 2.98048533802109 3.06103899580544 3.14159265358979 3.22214631137415 3.3026999691585 3.38325362694285 3.46380728472721 3.54436094251156 3.62491460029592 3.70546825808027 3.78602191586462 3.86657557364898 3.94712923143333 4.02768288921768 4.10823654700204 4.18879020478639 4.26934386257075 4.3498975203551 4.43045117813945 4.51100483592381 4.59155849370816 4.67211215149251 4.75266580927687 4.83321946706122 4.91377312484558 4.99432678262993 5.07488044041428 5.15543409819864 5.23598775598299 5.31654141376734 5.3970950715517 5.47764872933605 5.55820238712041 5.63875604490476 5.71930970268911 5.79986336047347 5.88041701825782 5.96097067604217 6.04152433382653 6.12207799161088 6.20263164939523 6.28318530717959 
79 5 6 7 8 9 10 11 12 13 14 15 16 17 18 19 20 21 22 23 24 25 26 27 28 29 30 31 32 33 34 35 36 37 38 39 40 41 42 43 44 45 46 47 48 49 50 51 52 53 54 55 56 57 58 59 60 61 62 63 64 65 66 67 68 69 70 71 72 73 74 75 76 77 78 79 80 81 82 5 
p 0.126666668554147 1 0 0.0805536577843537 0.161107315568707 0.241660973353061 0.322214631137415 0.402768288921768 0.483321946706122 0.563875604490476 0.644429262274829 0.724982920059183 0.805536577843537 0.88609023562789 0.966643893412244 1.0471975511966 1.12775120898095 1.2083048667653 1.28885852454966 1.36941218233401 1.44996584011837 1.53051949790272 1.61107315568707 1.69162681347143 1.77218047125578 1.85273412904013 1.93328778682449 2.01384144460884 2.09439510239319 2.17494876017755 2.2555024179619 2.33605607574626 2.41660973353061 2.49716339131496 2.57771704909932 2.65827070688367 2.73882436466802 2.81937802245238 2.89993168023673 2.98048533802109 3.06103899580544 3.14159265358979 3.22214631137415 3.3026999691585 3.38325362694285 3.46380728472721 3.54436094251156 3.62491460029592 3.70546825808027 3.78602191586462 3.86657557364898 3.94712923143333 4.02768288921768 4.10823654700204 4.18879020478639 4.26934386257075 4.3498975203551 4.43045117813945 4.51100483592381 4.59155849370816 4.67211215149251 4.75266580927687 4.83321946706122 4.91377312484558 4.99432678262993 5.07488044041428 5.15543409819864 5.23598775598299 5.31654141376734 5.3970950715517 5.47764872933605 5.55820238712041 5.63875604490476 5.71930970268911 5.79986336047347 5.88041701825782 5.96097067604217 6.04152433382653 6.12207799161088 6.20263164939523 6.28318530717959 
Surfaces 6
1 -60 30 0 0 1 0 1 0 0 0 0 -1 
1 60 30 0 1 0 -0 0 -1 0 0 -0 -1 
1 60 -30 0 0 -1 0 -1 0 0 -0 -0 -1 
1 -60 -30 0 -1 0 0 0 1 0 0 0 -1 
2 0 0 0 -0 -0 -1 1 0 0 0 1 0 20
1 -60 30 0 -0 0 1 1 0 0 0 1 -0 
Triangulations 6
4 2 1 0
-60 30 0 -60 30 10 60 30 0 60 30 10 0 0 0 -10 120 0 120 -10 4 1 2 3 1 4 
4 2 1 0
-60 -30 0 -60 -30 10 -60 30 0 -60 30 10 0 0 0 -10 60 0 60 -10 3 1 2 3 2 4 
4 2 1 0
60 30 0 60 30 10 60 -30 0 60 -30 10 0 0 0 -10 60 0 60 -10 3 1 2 3 2 4 
82 82 1 7.105427357601e-015
-60 30 0 60 30 0 60 -30 0 -60 -30 0 20 0 0 19.9351461626842 1.60933137433452 0 19.7410052527583 3.2082256171552 0 19.418836348521 4.78631328575116 0 18.9707288389429 6.33335987602945 0 18.3995888731765 7.8393321972015 0 17.7091205130642 9.29446344087537 0 16.9038017108759 10.689316522556 0 15.98885526807 12.0148452847596 0 14.970214963422 13.2624531648159 0 13.854487070192 14.4240489468763 0 12.6489075119075 15.4920992365531 0 11.3612949346231 16.4596773178731 0 10 17.3205080756888 0 8.57385122806109 18.0690086922076 0 7.09209774085072 18.7003248537083 0 5.56434927832906 19.2103622326274 0 4.0005138755209 19.5958130408454 0 2.41073360510647 19.8541774819611 0 0.805318802188309 19.9837799634314 0 -0.805318802188294 19.9837799634314 0 -2.41073360510645 19.8541774819611 0 -4.00051387552088 19.5958130408454 0 -5.56434927832904 19.2103622326275 0 -7.0920977408507 18.7003248537083 0 -8.57385122806107 18.0690086922077 0 -9.99999999999999 17.3205080756888 0 -11.3612949346231 16.4596773178731 0 -12.6489075119075 15.4920992365531 0 -13.854487070192 14.4240489468763 0 -14.970214963422 13.2624531648159 0 -15.98885526807 12.0148452847596 0 -16.9038017108759 10.689316522556 0 -17.7091205130642 9.29446344087537 0 -18.3995888731765 7.8393321972015 0 -18.9707288389429 6.33335987602945 0 -19.418836348521 4.78631328575115 0 -19.7410052527583 3.2082256171552 0 -19.9351461626842 1.60933137433451 0 -20 -6.43249059870655e-015 0 -19.9351461626842 -1.60933137433453 0 -19.7410052527583 -3.20822561715521 0 -19.418836348521 -4.78631328575117 0 -18.9707288389429 -6.33335987602946 0 -18.3995888731765 -7.83933219720151 0 -17.7091205130642 -9.29446344087538 0 -16.9038017108759 -10.689316522556 0 -15.98885526807 -12.0148452847596 0 -14.970214963422 -13.2624531648159 0 -13.854487070192 -14.4240489468763 0 -12.6489075119075 -15.4920992365531 0 -11.3612949346231 -16.4596773178731 0 -9.99999999999998 -17.3205080756888 0 -8.57385122806105 -18.0690086922077 0 -7.09209774085068 -18.7003248537083 0 -5.56434927832903 -19.2103622326275 0 -4.00051387552086 -19.5958130408454 0 -2.41073360510642 -19.8541774819611 0 -0.805318802188267 -19.9837799634314 0 0.805318802188331 -19.9837799634314 0 2.4107336051065 -19.8541774819611 0 4.00051387552094 -19.5958130408453 0 5.56434927832909 -19.2103622326274 0 7.09209774085075 -18.7003248537083 0 8.57385122806113 -18.0690086922076 0 10 -17.3205080756887 0 11.3612949346232 -16.4596773178731 0 12.6489075119076 -15.4920992365531 0 13.854487070192 -14.4240489468763 0 14.9702149634221 -13.2624531648159 0 15.9888552680701 -12.0148452847595 0 16.9038017108759 -10.689316522556 0 17.7091205130642 -9.29446344087532 0 18.3995888731765 -7.83933219720144 0 18.9707288389429 -6.33335987602939 0 19.4188363485211 -4.7863132857511 0 19.7410052527583 -3.20822561715514 0 19.9351461626842 -1.60933137433448 0 0 0 120 0 120 -60 0 -60 80 -30 79.9351461626842 -28.3906686256655 79.7410052527583 -26.7917743828448 79.418836348521 -25.2136867142488 78.9707288389429 -23.6666401239706 78.3995888731765 -22.1606678027985 77.7091205130642 -20.7055365591246 76.9038017108759 -19.310683477444 75.98885526807 -17.9851547152404 74.970214963422 -16.7375468351841 73.854487070192 -15.5759510531237 72.6489075119076 -14.5079007634469 71.3612949346231 -13.5403226821269 70 -12.6794919243112 68.5738512280611 -11.9309913077924 67.0920977408507 -11.2996751462917 65.5643492783291 -10.7896377673726 64.0005138755209 -10.4041869591547 62.4107336051065 -10.1458225180389 60.8053188021883 -10.0162200365686 59.1946811978117 -10.0162200365686 57.5892663948935 -10.1458225180389 55.9994861244791 -10.4041869591546 54.435650721671 -10.7896377673726 52.9079022591493 -11.2996751462917 51.4261487719389 -11.9309913077923 50 -12.6794919243112 48.6387050653769 -13.5403226821269 47.3510924880925 -14.5079007634469 46.145512929808 -15.5759510531237 45.029785036578 -16.7375468351841 44.01114473193 -17.9851547152404 43.0961982891241 -19.310683477444 42.2908794869358 -20.7055365591246 41.6004111268235 -22.1606678027985 41.0292711610571 -23.6666401239706 40.581163651479 -25.2136867142488 40.2589947472417 -26.7917743828448 40.0648538373158 -28.3906686256655 40 -30 40.0648538373158 -31.6093313743345 40.2589947472417 -33.2082256171552 40.581163651479 -34.7863132857512 41.0292711610571 -36.3333598760295 41.6004111268235 -37.8393321972015 42.2908794869358 -39.2944634408754 43.0961982891241 -40.689316522556 44.01114473193 -42.0148452847596 45.029785036578 -43.2624531648159 46.145512929808 -44.4240489468763 47.3510924880925 -45.4920992365531 48.6387050653769 -46.4596773178731 50 -47.3205080756888 51.4261487719389 -48.0690086922077 52.9079022591493 -48.7003248537083 54.435650721671 -49.2103622326275 55.9994861244791 -49.5958130408454 57.5892663948936 -49.8541774819611 59.1946811978117 -49.9837799634314 60.8053188021883 -49.9837799634314 62.4107336051065 -49.8541774819611 64.0005138755209 -49.5958130408453 65.5643492783291 -49.2103622326274 67.0920977408507 -48.7003248537083 68.5738512280611 -48.0690086922076 70 -47.3205080756888 71.3612949346232 -46.4596773178731 72.6489075119076 -45.4920992365531 73.854487070192 -44.4240489468763 74.9702149634221 -43.2624531648159 75.9888552680701 -42.0148452847595 76.9038017108759 -40.689316522556 77.7091205130642 -39.2944634408753 78.3995888731765 -37.8393321972014 78.9707288389429 -36.3333598760294 79.4188363485211 -34.7863132857511 79.7410052527583 -33.2082256171551 79.9351461626842 -31.6093313743345 37 1 38 36 1 37 53 4 54 55 54 4 35 1 36 52 4 53 3 63 4 3 64 63 3 65 64 3 66 65 56 55 4 3 67 66 3 68 67 3 69 68 3 70 69 3 71 70 34 1 35 51 4 52 3 72 71 3 73 72 3 74 73 3 75 74 3 76 75 3 77 76 3 78 77 57 56 4 3 79 78 33 1 34 50 4 51 3 80 79 3 81 80 3 82 81 3 5 82 58 57 4 2 6 5 2 7 6 2 8 7 2 9 8 49 4 50 2 10 9 2 11 10 32 1 33 2 12 11 2 13 12 2 14 13 2 15 14 59 58 4 2 16 15 2 17 16 2 18 17 2 19 18 2 20 19 2 21 20 31 1 32 48 4 49 2 22 21 2 5 3 2 1 25 2 25 24 2 24 23 60 59 4 2 23 22 25 1 26 26 1 27 30 1 31 47 4 48 61 60 4 29 1 30 46 4 47 28 1 29 62 61 4 45 4 46 27 1 28 63 62 4 44 1 4 44 4 45 43 1 44 42 1 43 41 1 42 40 1 41 39 1 40 38 1 39 
4 2 1 0
60 -30 0 60 -30 10 -60 -30 0 -60 -30 10 0 0 0 -10 120 0 120 -10 4 1 2 3 1 4 
158 156 1 0.0162200365686099
20 0 0 20 0 10 20 0 0 20 0 10 19.9351461626842 1.60933137433452 0 19.7410052527583 3.2082256171552 0 19.418836348521 4.78631328575116 0 18.9707288389429 6.33335987602945 0 18.3995888731765 7.8393321972015 0 17.7091205130642 9.29446344087537 0 16.9038017108759 10.689316522556 0 15.98885526807 12.0148452847596 0 14.970214963422 13.2624531648159 0 13.854487070192 14.4240489468763 0 12.6489075119075 15.4920992365531 0 11.3612949346231 16.4596773178731 0 10 17.3205080756888 0 8.57385122806109 18.0690086922076 0 7.09209774085072 18.7003248537083 0 5.56434927832906 19.2103622326274 0 4.0005138755209 19.5958130408454 0 2.41073360510647 19.8541774819611 0 0.805318802188309 19.9837799634314 0 -0.805318802188294 19.9837799634314 0 -2.41073360510645 19.8541774819611 0 -4.00051387552088 19.5958130408454 0 -5.56434927832904 19.2103622326275 0 -7.0920977408507 18.7003248537083 0 -8.57385122806107 18.0690086922077 0 -9.99999999999999 17.3205080756888 0 -11.3612949346231 16.4596773178731 0 -12.6489075119075 15.4920992365531 0 -13.854487070192 14.4240489468763 0 -14.970214963422 13.2624531648159 0 -15.98885526807 12.0148452847596 0 -16.9038017108759 10.689316522556 0 -17.7091205130642 9.29446344087537 0 -18.3995888731765 7.8393321972015 0 -18.9707288389429 6.33335987602945 0 -19.418836348521 4.78631328575115 0 -19.7410052527583 3.2082256171552 0 -19.9351461626842 1.60933137433451 0 -20 -6.43249059870655e-015 0 -19.9351461626842 -1.60933137433453 0 -19.7410052527583 -3.20822561715521 0 -19.418836348521 -4.78631328575117 0 -18.9707288389429 -6.33335987602946 0 -18.3995888731765 -7.83933219720151 0 -17.7091205130642 -9.29446344087538 0 -16.9038017108759 -10.689316522556 0 -15.98885526807 -12.0148452847596 0 -14.970214963422 -13.2624531648159 0 -13.854487070192 -14.4240489468763 0 -12.6489075119075 -15.4920992365531 0 -11.3612949346231 -16.4596773178731 0 -9.99999999999998 -17.3205080756888 0 -8.57385122806105 -18.0690086922077 0 -7.09209774085068 -18.7003248537083 0 -5.56434927832903 -19.2103622326275 0 -4.00051387552086 -19.5958130408454 0 -2.41073360510642 -19.8541774819611 0 -0.805318802188267 -19.9837799634314 0 0.805318802188331 -19.9837799634314 0 2.4107336051065 -19.8541774819611 0 4.00051387552094 -19.5958130408453 0 5.56434927832909 -19.2103622326274 0 7.09209774085075 -18.7003248537083 0 8.57385122806113 -18.0690086922076 0 10 -17.3205080756887 0 11.3612949346232 -16.4596773178731 0 12.6489075119076 -15.4920992365531 0 13.854487070192 -14.4240489468763 0 14.9702149634221 -13.2624531648159 0 15.9888552680701 -12.0148452847595 0 16.9038017108759 -10.689316522556 0 17.7091205130642 -9.29446344087532 0 18.3995888731765 -7.83933219720144 0 18.9707288389429 -6.33335987602939 0 19.4188363485211 -4.7863132857511 0 19.7410052527583 -3.20822561715514 0 19.9351461626842 -1.60933137433448 0 19.9351461626842 1.60933137433452 10 19.7410052527583 3.2082256171552 10 19.418836348521 4.78631328575116 10 18.9707288389429 6.33335987602945 10 18.3995888731765 7.8393321972015 10 17.7091205130642 9.29446344087537 10 16.9038017108759 10.689316522556 10 15.98885526807 12.0148452847596 10 14.970214963422 13.2624531648159 10 13.854487070192 14.4240489468763 10 12.6489075119075 15.4920992365531 10 11.3612949346231 16.4596773178731 10 10 17.3205080756888 10 8.57385122806109 18.0690086922076 10 7.09209774085072 18.7003248537083 10 5.56434927832906 19.2103622326274 10 4.0005138755209 19.5958130408454 10 2.41073360510647 19.8541774819611 10 0.805318802188309 19.9837799634314 10 -0.805318802188294 19.9837799634314 10 -2.41073360510645 19.8541774819611 10 -4.00051387552088 19.5958130408454 10 -5.56434927832904 19.2103622326275 10 -7.0920977408507 18.7003248537083 10 -8.57385122806107 18.0690086922077 10 -9.99999999999999 17.3205080756888 10 -11.3612949346231 16.4596773178731 10 -12.6489075119075 15.4920992365531 10 -13.854487070192 14.4240489468763 10 -14.970214963422 13.2624531648159 10 -15.98885526807 12.0148452847596 10 -16.9038017108759 10.689316522556 10 -17.7091205130642 9.29446344087537 10 -18.3995888731765 7.8393321972015 10 -18.9707288389429 6.33335987602945 10 -19.418836348521 4.78631328575115 10 -19.7410052527583 3.2082256171552 10 -19.9351461626842 1.60933137433451 10 -20 -6.43249059870655e-015 10 -19.9351461626842 -1.60933137433453 10 -19.7410052527583 -3.20822561715521 10 -19.418836348521 -4.78631328575117 10 -18.9707288389429 -6.33335987602946 10 -18.3995888731765 -7.83933219720151 10 -17.7091205130642 -9.29446344087538 10 -16.9038017108759 -10.689316522556 10 -15.98885526807 -12.0148452847596 10 -14.970214963422 -13.2624531648159 10 -13.854487070192 -14.4240489468763 10 -12.6489075119075 -15.4920992365531 10 -11.3612949346231 -16.4596773178731 10 -9.99999999999998 -17.3205080756888 10 -8.57385122806105 -18.0690086922077 10 -7.09209774085068 -18.7003248537083 10 -5.56434927832903 -19.2103622326275 10 -4.00051387552086 -19.5958130408454 10 -2.41073360510642 -19.8541774819611 10 -0.805318802188267 -19.9837799634314 10 0.805318802188331 -19.9837799634314 10 2.4107336051065 -19.8541774819611 10 4.00051387552094 -19.5958130408453 10 5.56434927832909 -19.2103622326274 10 7.09209774085075 -18.7003248537083 10 8.57385122806113 -18.0690086922076 10 10 -17.3205080756887 10 11.3612949346232 -16.4596773178731 10 12.6489075119076 -15.4920992365531 10 13.854487070192 -14.4240489468763 10 14.9702149634221 -13.2624531648159 10 15.9888552680701 -12.0148452847595 10 16.9038017108759 -10.689316522556 10 17.7091205130642 -9.29446344087532 10 18.3995888731765 -7.83933219720144 10 18.9707288389429 -6.33335987602939 10 19.4188363485211 -4.7863132857511 10 19.7410052527583 -3.20822561715514 10 19.9351461626842 -1.60933137433448 10 0 0 0 -10 6.28318530717959 0 6.28318530717959 -10 0.0805536577843537 0 0.161107315568707 0 0.241660973353061 0 0.322214631137415 0 0.402768288921768 0 0.483321946706122 0 0.563875604490476 0 0.644429262274829 0 0.724982920059183 0 0.805536577843537 0 0.88609023562789 0 0.966643893412244 0 1.0471975511966 0 1.12775120898095 0 1.2083048667653 0 1.28885852454966 0 1.36941218233401 0 1.44996584011837 0 1.53051949790272 0 1.61107315568707 0 1.69162681347143 0 1.77218047125578 0 1.85273412904013 0 1.93328778682449 0 2.01384144460884 0 2.09439510239319 0 2.17494876017755 0 2.2555024179619 0 2.33605607574626 0 2.41660973353061 0 2.49716339131496 0 2.57771704909932 0 2.65827070688367 0 2.73882436466802 0 2.81937802245238 0 2.89993168023673 0 2.98048533802109 0 3.06103899580544 0 3.14159265358979 0 3.22214631137415 0 3.3026999691585 0 3.38325362694285 0 3.46380728472721 0 3.54436094251156 0 3.62491460029592 0 3.70546825808027 0 3.78602191586462 0 3.86657557364898 0 3.94712923143333 0 4.02768288921768 0 4.10823654700204 0 4.18879020478639 0 4.26934386257075 0 4.3498975203551 0 4.43045117813945 0 4.51100483592381 0 4.59155849370816 0 4.67211215149251 0 4.75266580927687 0 4.83321946706122 0 4.91377312484558 0 4.99432678262993 0 5.07488044041428 0 5.15543409819864 0 5.23598775598299 0 5.31654141376734 0 5.3970950715517 0 5.47764872933605 0 5.55820238712041 0 5.63875604490476 0 5.71930970268911 0 5.79986336047347 0 5.88041701825782 0 5.96097067604218 0 6.04152433382653 0 6.12207799161088 0 6.20263164939524 0 0.0805536577843537 -10 0.161107315568707 -10 0.241660973353061 -10 0.322214631137415 -10 0.402768288921768 -10 0.483321946706122 -10 0.563875604490476 -10 0.644429262274829 -10 0.724982920059183 -10 0.805536577843537 -10 0.88609023562789 -10 0.966643893412244 -10 1.0471975511966 -10 1.12775120898095 -10 1.2083048667653 -10 1.28885852454966 -10 1.36941218233401 -10 1.44996584011837 -10 1.53051949790272 -10 1.61107315568707 -10 1.69162681347143 -10 1.77218047125578 -10 1.85273412904013 -10 1.93328778682449 -10 2.01384144460884 -10 2.09439510239319 -10 2.17494876017755 -10 2.2555024179619 -10 2.33605607574626 -10 2.41660973353061 -10 2.49716339131496 -10 2.57771704909932 -10 2.65827070688367 -10 2.73882436466802 -10 2.81937802245238 -10 2.89993168023673 -10 2.98048533802109 -10 3.06103899580544 -10 3.14159265358979 -10 3.22214631137415 -10 3.3026999691585 -10 3.38325362694285 -10 3.46380728472721 -10 3.54436094251156 -10 3.62491460029592 -10 3.70546825808027 -10 3.78602191586462 -10 3.86657557364898 -10 3.94712923143333 -10 4.02768288921768 -10 4.10823654700204 -10 4.18879020478639 -10 4.26934386257075 -10 4.3498975203551 -10 4.43045117813945 -10 4.51100483592381 -10 4.59155849370816 -10 4.67211215149251 -10 4.75266580927687 -10 4.83321946706122 -10 4.91377312484558 -10 4.99432678262993 -10 5.07488044041428 -10 5.15543409819864 -10 5.23598775598299 -10 5.31654141376734 -10 5.3970950715517 -10 5.47764872933605 -10 5.55820238712041 -10 5.63875604490476 -10 5.71930970268911 -10 5.79986336047347 -10 5.88041701825782 -10 5.96097067604218 -10 6.04152433382653 -10 6.12207799161088 -10 6.20263164939524 -10 5 1 2 5 2 82 6 5 82 6 82 83 7 6 83 7 83 84 8 7 84 8 84 85 8 85 86 9 8 86 9 86 87 10 9 87 11 87 88 11 10 87 12 88 89 12 89 90 12 11 88 13 12 90 14 90 91 14 13 90 15 14 91 15 91 92 16 15 92 16 92 93 16 93 94 17 16 94 17 94 95 18 17 95 19 18 95 19 95 96 19 96 97 20 19 97 21 20 97 21 97 98 21 98 99 22 21 99 22 99 100 23 22 100 24 23 100 24 100 101 25 101 102 25 102 103 25 24 101 26 103 104 26 25 103 27 26 104 28 104 105 28 27 104 29 105 106 29 106 107 29 28 105 30 29 107 31 107 108 31 108 109 31 30 107 32 109 110 32 31 109 33 32 110 34 110 111 34 111 112 34 33 110 35 112 113 35 34 112 36 35 113 37 113 114 37 114 115 37 36 113 38 115 116 38 37 115 39 38 116 40 39 116 40 116 117 41 40 117 41 117 118 42 41 118 42 118 119 42 119 120 43 42 120 44 120 121 44 43 120 45 44 121 45 121 122 45 122 123 46 45 123 47 123 124 47 46 123 48 124 125 48 125 126 48 47 124 49 48 126 50 126 127 50 49 126 51 127 128 51 128 129 51 50 127 52 51 129 53 129 130 53 52 129 54 130 131 54 53 130 55 131 132 55 132 133 55 54 131 56 55 133 57 133 134 57 56 133 58 134 135 58 57 134 59 135 136 59 58 135 60 136 137 60 137 138 60 59 136 61 60 138 62 138 139 62 61 138 63 139 140 63 62 139 64 140 141 64 63 140 65 64 141 65 141 142 66 65 142 66 142 143 67 66 143 67 143 144 67 144 145 68 67 145 69 68 145 69 145 146 70 69 146 70 146 147 71 70 147 71 147 148 71 148 149 72 71 149 73 72 149 73 149 150 74 73 150 74 150 151 75 74 151 75 151 152 76 75 152 76 152 153 77 76 153 77 153 154 78 154 155 78 77 154 79 155 156 79 78 155 80 156 157 80 79 156 81 157 158 81 158 4 81 80 157 3 81 4 

TShapes 31
Ve
1e-007
-60 30 0
0 0

0101101
*
Ed
 1e-007 1 1 0
1  1 0 0 10
6  1 1 0
6  2 2 0
0

0101000
+31 3 -31 5 *
Ve
1e-007
60 30 0
0 0

0101101
*
Ed
 1e-007 1 1 0
1  2 0 0 10
6  3 1 0
6  4 3 0
0

0101000
+29 3 -29 5 *
Ed
 1e-007 1 1 0
1  3 0 0 120
6  5 1 8
6  6 1 9
6  7 4 10
0

0101000
+31 10 -29 10 *
Wi

0101000
+30 0 -28 0 -27 7 +27 11 *
Fa
0  1e-007 1 0
2  1
0101000
+26 0 *
Ve
1e-007
60 -30 0
0 0

0101101
*
Ed
 1e-007 1 1 0
1  4 0 0 10
6  8 3 0
6  9 5 0
0

0101000
+24 3 -24 5 *
Ed
 1e-007 1 1 0
1  5 0 0 60
6  10 3 9
6  11 3 8
6  12 4 10
0

0101000
+29 10 -24 10 *
Wi

0101000
+28 0 -23 0 -22 7 +22 11 *
Fa
0  1e-007 2 0
2  3
0101000
+21 0 *
Ve
1e-007
-60 -30 0
0 0

0101101
*
Ed
 1e-007 1 1 0
1  6 0 0 10
6  13 5 0
6  14 2 0
0

0101000
+19 3 -19 5 *
Ed
 1e-007 1 1 0
1  7 0 0 120
6  15 5 9
6  16 5 8
6  17 4 10
0

0101000
+24 10 -19 10 *
Wi

0101000
+23 0 -18 0 -17 7 +17 11 *
Fa
0  1e-007 3 0
2  5
0101000
+16 0 *
Ed
 1e-007 1 1 0
1  8 0 0 60
6  18 2 8
6  19 2 9
6  20 4 10
0

0101000
+19 10 -31 10 *
Wi

0101000
+18 0 -30 0 -14 7 +14 11 *
Fa
0  1e-007 4 0
2  2
0101000
+13 0 *
Ve
1e-007
20 0 0
0 0

0101101
*
Ed
 1e-007 1 1 0
1  9 0 0 10
3  1 2CN 5 0 0 10
7  21 22 6 0
0

0101000
+11 3 -11 5 *
Ed
 1e-007 1 1 0
1  10 0 0 6.28318530717959
2  3 5 8 0 6.28318530717959
2  4 5 9 0 6.28318530717959
6  23 6 9
6  24 6 8
6  25 4 10
0

0101100
+11 10 -11 10 *
Wi

0101000
+10 0 -10 0 -9 7 +9 11 *
Fa
0  1e-007 5 0
2  6
0101000
+8 0 *
Wi

0101100
+27 0 +22 0 +17 0 +14 0 *
Wi

0101100
+9 0 *
Fa
0  1e-007 6 0
2  4
0101000
-6 6 -5 6 *
Sh

0101100
-25 0 -20 0 -15 0 -12 0 -7 0 +4 3 -4 5 *
So

0100100
-3 0 *
Co

1100000
+2 1 *

+1 0 