DBRep_DrawableShape

CASCADE Topology V1, (c) Matra-Datavision
Locations 11
1
              1               0               0               0 
              0               1               0               0 
              0               0               1               0 
1
              1               0               0               0 
              0               1               0               0 
              0               0               1               0 
2  2 -1 0
1
              1               0               0               0 
              0               1               0               0 
              0               0               1              10 
2  2 -1 4 1 0
1
              1               0               0               0 
              0               1               0               0 
              0               0               1               0 
2  6 1 2 -1 0
2  4 -1 2 1 6 -1 0
2  2 1 6 -1 0
2  6 -1 0
2  6 1 2 -1 4 1 0
Curve2ds 0
Curves 12
1 0 0 0 0 0 1 
1 40.098731999999998 0 0 0 0 1 
1 0 0 0 1 0 0 
1 40.098731999999998 39.848117999999999 0 0 0 1 
1 40.098731999999998 0 0 0 1 0 
1 30.241116999999999 39.848117999999999 0 0 0 1 
1 40.098731999999998 39.848117999999999 0 -1 0 0 
1 30.241116999999999 9.272831 0 0 0 1 
1 30.241116999999999 39.848117999999999 0 0 -1 0 
1 0 9.272831 0 0 0 1 
1 30.241116999999999 9.272831 0 -1 0 0 
1 0 9.272831 0 0 -1 0 
Polygon3D 0
PolygonOnTriangulations 30
2 1 2 
p 0.0599645675602083 1 0 10 
2 3 4 
p 0.0599645675602083 1 0 10 
2 3 4 
p 0.0599645675602083 1 0 10 
2 1 2 
p 0.0599645675602083 1 0 10 
2 2 4 
p 0.0599645675602083 1 0 40.098732 
2 1 3 
p 0.0599645675602083 1 0 40.098732 
2 1 2 
p 0.0599645675602083 1 0 40.098732 
2 3 4 
p 0.0599645675602083 1 0 10 
2 1 2 
p 0.0599645675602083 1 0 10 
2 2 4 
p 0.0599645675602083 1 0 39.848118 
2 1 3 
p 0.0599645675602083 1 0 39.848118 
2 2 3 
p 0.0599645675602083 1 0 39.848118 
2 3 4 
p 0.0599645675602083 1 0 10 
2 1 2 
p 0.0599645675602083 1 0 10 
2 1 3 
p 0.0599645675602083 1 0 9.857615 
2 2 4 
p 0.0599645675602083 1 0 9.857615 
2 3 4 
p 0.0599645675602083 1 0 9.857615 
2 3 4 
p 0.0599645675602083 1 0 10 
2 1 2 
p 0.0599645675602083 1 0 10 
2 1 3 
p 0.0599645675602083 1 0 30.575287 
2 2 4 
p 0.0599645675602083 1 0 30.575287 
2 4 5 
p 0.0599645675602083 1 0 30.575287 
2 3 4 
p 0.0599645675602083 1 0 10 
2 1 2 
p 0.0599645675602083 1 0 10 
2 2 4 
p 0.0599645675602083 1 0 30.241117 
2 1 3 
p 0.0599645675602083 1 0 30.241117 
2 5 6 
p 0.0599645675602083 1 0 30.241117 
2 1 3 
p 0.0599645675602083 1 0 9.272831 
2 2 4 
p 0.0599645675602083 1 0 9.272831 
2 6 1 
p 0.0599645675602083 1 0 9.272831 
Surfaces 7
1 0 0 0 0 1 0 1 0 0 0 0 -1 
1 40.098731999999998 0 0 -1 0 0 0 1 0 0 0 -1 
1 40.098731999999998 39.848117999999999 0 0 -1 0 -1 0 0 -0 -0 -1 
1 30.241116999999999 39.848117999999999 0 1 0 -0 0 -1 0 0 -0 -1 
1 30.241116999999999 9.272831 0 0 -1 0 -1 0 0 -0 -0 -1 
1 0 9.272831 0 1 0 -0 0 -1 0 0 -0 -1 
1 0 0 0 0 0 -1 -1 0 -0 0 1 0 
Triangulations 7
4 2 1 0
0 0 0 0 0 10 40.098732 0 0 40.098732 0 10 0 0 0 -10 40.098732 0 40.098732 -10 3 1 2 3 2 4 
4 2 1 0
0 9.272831 0 0 9.272831 10 0 0 0 0 0 10 0 0 0 -10 9.272831 0 9.272831 -10 3 1 2 3 2 4 
4 2 1 8.88178419700125e-016
40.098732 0 0 40.098732 0 10 40.098732 39.848118 0 40.098732 39.848118 10 0 0 0 -10 39.848118 0 39.848118 -10 4 1 2 3 1 4 
6 4 1 1.77635683940025e-015
0 0 0 40.098732 0 0 40.098732 39.848118 0 30.241117 39.848118 0 30.241117 9.272831 0 0 9.272831 0 0 0 -40.098732 0 -40.098732 39.848118 -30.241117 39.848118 -30.241117 9.272831 0 9.272831 3 2 5 1 5 2 6 5 1 4 3 5 
4 2 1 1.33226762955019e-015
40.098732 39.848118 0 40.098732 39.848118 10 30.241117 39.848118 0 30.241117 39.848118 10 0 0 0 -10 9.857615 0 9.857615 -10 3 1 2 3 2 4 
4 2 1 8.88178419700125e-016
30.241117 39.848118 0 30.241117 39.848118 10 30.241117 9.272831 0 30.241117 9.272831 10 0 0 0 -10 30.575287 0 30.575287 -10 3 1 2 3 2 4 
4 2 1 8.88178419700125e-016
30.241117 9.272831 0 30.241117 9.272831 10 0 9.272831 0 0 9.272831 10 0 0 0 -10 30.241117 0 30.241117 -10 3 1 2 3 2 4 

TShapes 35
Ve
1e-007
0 0 0
0 0

0101101
*
Ed
 1e-007 1 1 0
1  1 0 0 10
6  1 1 0
6  2 2 0
0

0101000
+35 3 -35 5 *
Ve
1e-007
40.098732 0 0
0 0

0101101
*
Ed
 1e-007 1 1 0
1  2 0 0 10
6  3 1 0
6  4 3 0
0

0101000
+33 3 -33 5 *
Ed
 1e-007 1 1 0
1  3 0 0 40.098732
6  5 1 8
6  6 1 9
6  7 4 10
0

0101000
+35 10 -33 10 *
Wi

0101000
+34 0 -32 0 -31 7 +31 11 *
Fa
0  1e-007 1 0
2  1
0101000
+30 0 *
Ve
1e-007
40.098732 39.848118 0
0 0

0101101
*
Ed
 1e-007 1 1 0
1  4 0 0 10
6  8 3 0
6  9 5 0
0

0101000
+28 3 -28 5 *
Ed
 1e-007 1 1 0
1  5 0 0 39.848118
6  10 3 8
6  11 3 9
6  12 4 10
0

0101000
+33 10 -28 10 *
Wi

0101000
+32 0 -27 0 -26 7 +26 11 *
Fa
0  1e-007 2 0
2  3
0101000
+25 0 *
Ve
1e-007
30.241117 39.848118 0
0 0

0101101
*
Ed
 1e-007 1 1 0
1  6 0 0 10
6  13 5 0
6  14 6 0
0

0101000
+23 3 -23 5 *
Ed
 1e-007 1 1 0
1  7 0 0 9.857615
6  15 5 9
6  16 5 8
6  17 4 10
0

0101000
+28 10 -23 10 *
Wi

0101000
+27 0 -22 0 -21 7 +21 11 *
Fa
0  1e-007 3 0
2  5
0101000
+20 0 *
Ve
1e-007
30.241117 9.272831 0
0 0

0101101
*
Ed
 1e-007 1 1 0
1  8 0 0 10
6  18 6 0
6  19 7 0
0

0101000
+18 3 -18 5 *
Ed
 1e-007 1 1 0
1  9 0 0 30.575287
6  20 6 9
6  21 6 8
6  22 4 10
0

0101000
+23 10 -18 10 *
Wi

0101000
+22 0 -17 0 -16 7 +16 11 *
Fa
0  1e-007 4 0
2  6
0101000
+15 0 *
Ve
1e-007
0 9.272831 0
0 0

0101101
*
Ed
 1e-007 1 1 0
1  10 0 0 10
6  23 7 0
6  24 2 0
0

0101000
+13 3 -13 5 *
Ed
 1e-007 1 1 0
1  11 0 0 30.241117
6  25 7 8
6  26 7 9
6  27 4 10
0

0101000
+18 10 -13 10 *
Wi

0101000
+17 0 -12 0 -11 7 +11 11 *
Fa
0  1e-007 5 0
2  7
0101000
+10 0 *
Ed
 1e-007 1 1 0
1  12 0 0 9.272831
6  28 2 9
6  29 2 8
6  30 4 10
0

0101000
+13 10 -35 10 *
Wi

0101000
+12 0 -34 0 -8 7 +8 11 *
Fa
0  1e-007 6 0
2  2
0101000
+7 0 *
Wi

0101100
+31 0 +26 0 +21 0 +16 0 +11 0 +8 0 *
Fa
0  1e-007 7 0
2  4
0101000
-5 6 *
Sh

0101100
-29 0 -24 0 -19 0 -14 0 -9 0 -6 0 +4 3 -4 5 *
So

0100100
+3 0 *
Co

1100000
+2 1 *

+1 0 